<?xml version="1.0" encoding="utf-8"?>
<!-- Generator: Adobe Illustrator 18.1.1, SVG Export Plug-In . SVG Version: 6.00 Build 0)  -->
<svg version="1.1" id="tepapa_x5F_level3" xmlns="http://www.w3.org/2000/svg" xmlns:xlink="http://www.w3.org/1999/xlink" x="0px"
	 y="0px" viewBox="-300 -300 1240 1080" enable-background="new -300 -300 1240 1080" xml:space="preserve">
<g id="Layer_13">
	<path fill="#038DFF" stroke="#7DE3FF" stroke-width="10" stroke-miterlimit="10" d="M428.5,320.5L408,309.5
		c-0.7-0.4-1.3,0.2-1.1,0.9l3.1,8.7c0,0.2,0,0.4,0,0.7l-4.5,6.9c-0.4,0.7,0.2,1.3,0.9,1.1l22.1-6C429,321.8,429.2,320.9,428.5,320.5
		z"/>
</g>
<path fill="#9F9F96" stroke="#875B32" stroke-width="9" stroke-miterlimit="10" d="M489.7-285.1l36.9,18.3L515.2-244l111.2,56.7
	L607-150l50,325.9L765,233.8l-39.1,77.5c0,0,69.7,49.4-15.4,62.5v315.9L49,690.4l-38.6,75.9l-36.9-19.4l105-207.3l-50-54.5
	c0,0-89.8,95.4-212.2-200.8l337.3-0.4l10.9-36.9l-10.7-2.7l2.2-32.4l8.9-23.2l12.5,1.8l6.3-75.9l80,44.9L489.7-285.1z"/>
<path fill="none" stroke="#FCFCFA" stroke-width="8" stroke-miterlimit="10" d="M489.7-286l36.9,18.3l-11.4,22.8l111.2,56.3
	L607-151.3l50,326.1L765,232.7l-39.1,77.7c0,0,69.7,49.4-15.4,62.5v315.9L49,689.5l-38.6,75.9L-26.5,746l105-207.3l-50-54.5
	c0,0-89.8,95.4-212.2-200.8l337.3-0.4l10.9-36.9l-10.7-2.7L156,211l8.9-23.2l12.5,1.8l6.3-75.9l80,44.9L489.7-286z"/>
<g id="tehuinga">
	<polyline fill="#875B32" stroke="#FCFCFC" stroke-width="0.5" stroke-miterlimit="10" points="99.7,305.1 40.5,444.2 25.6,459.9 
		15.3,466.8 7.5,470.4 0.5,472.2 -7.5,473 -15.3,473 -25.1,471.9 -31,470.4 -39.7,466.8 -47.5,462.6 -55.3,456.5 -62.2,450.5 
		-70.9,441.6 -76.1,435.5 -82.3,427.7 -90.2,417.4 -98.6,404.2 -108.2,388.6 -115.4,376.3 -149.1,305.1 99.7,305.1 	"/>
</g>
<polygon opacity="0.49" fill="#875B32" stroke="#FCFCFC" stroke-width="0.5" stroke-miterlimit="10" points="375.4,-19.1 
	417.8,-103.5 612.2,-6.3 641.9,186.5 567,413.2 370.2,413.2 370.2,500.7 235.3,500.7 235.3,525.3 89,525.3 "/>
<g id="oceania">
	<polyline fill="#875B32" stroke="#FCFCFC" stroke-width="0.5" stroke-miterlimit="10" points="581.6,336.1 581.6,289.9 
		629.8,190.9 733.9,247.2 699.9,316.9 708,320.9 713.8,324.7 719.2,329.2 722.5,333.4 724.3,337 725.2,341.3 724.3,346.2 
		721.2,350.4 715.6,355.3 709.6,357.8 700.8,359.6 691.9,359.6 685.2,358.7 677.4,356 671.1,352.6 665.1,348.2 661.7,344.8 
		656.4,338.6 654.8,336.1 581.6,336.1 	"/>
</g>
<g id="blood">
	<polygon fill="#875B32" stroke="#FCFCFC" stroke-width="0.5" stroke-miterlimit="10" points="574.9,298.6 423.4,298.6 424.3,287.4 
		427,274.2 431.2,264 435.7,255.9 438.4,252.6 371.4,216.8 364.4,230.7 358.2,247.2 354.8,258.6 352.1,270.9 351.2,282.1 
		351.2,298.6 325.1,297.7 346.1,203.9 311.3,184.7 326,155.2 442.6,215 489.7,118.5 623.1,190.9 574.9,289.9 	"/>
</g>
<rect x="429" y="275.1" fill="none" width="122" height="20.1"/>
<text transform="matrix(1 0 0 1 428.9608 290.3243)" fill="#FFFFFF" font-family="'Monitorica-Bold'" font-size="20.1043">Blood Earth Fire</text>
</svg>
