<?xml version="1.0" encoding="utf-8"?>
<!-- Generator: Adobe Illustrator 18.1.1, SVG Export Plug-In . SVG Version: 6.00 Build 0)  -->
<svg version="1.1" id="tepapa_x5F_level3" xmlns="http://www.w3.org/2000/svg" xmlns:xlink="http://www.w3.org/1999/xlink" x="0px"
	 y="0px" viewBox="0 0 640 480" enable-background="new 0 0 640 480" xml:space="preserve">
<g id="Layer_13">
	<path fill="#038DFF" stroke="#7DE3FF" stroke-width="10" stroke-miterlimit="10" d="M375,275.5l-9.2-4.9c-0.3-0.2-0.6,0.1-0.5,0.4
		l1.4,3.9c0,0.1,0,0.2,0,0.3l-2,3.1c-0.2,0.3,0.1,0.6,0.4,0.5l9.9-2.7C375.2,276.1,375.3,275.7,375,275.5z"/>
</g>
<g>
	<path fill="#9F9F96" stroke="#F6D5AD" stroke-width="9" stroke-miterlimit="10" d="M402.4,4.4l16.5,8.2l-5.1,10.2l49.8,25.4
		l-8.7,16.7l22.4,145.9l48.3,25.9l-17.5,34.7c0,0,31.2,22.1-6.9,28v141.4l-296.1,0.3l-17.3,34l-16.5-8.7l47-92.8l-22.4-24.4
		c0,0-40.2,42.7-95-89.9l151-0.2l4.9-16.5l-4.8-1.2l1-14.5l4-10.4l5.6,0.8l2.8-34l35.8,20.1L402.4,4.4z"/>
	<path fill="none" stroke="#FCFCFA" stroke-width="8" stroke-miterlimit="10" d="M402.4,4l16.5,8.2l-5.1,10.2l49.8,25.2l-8.7,16.7
		l22.4,146l48.3,25.9L508.1,271c0,0,31.2,22.1-6.9,28v141.4l-296.1,0.3l-17.3,34l-16.5-8.7l47-92.8l-22.4-24.4
		c0,0-40.2,42.7-95-89.9l151-0.2l4.9-16.5L252,241l1-14.5l4-10.4l5.6,0.8l2.8-34l35.8,20.1L402.4,4z"/>
</g>
<g id="tehuinga">
	<polyline fill="#FC9627" stroke="#FCFCFC" stroke-width="0.5" stroke-miterlimit="10" points="227.8,268.6 201.3,330.9 
		194.6,337.9 190,341 186.5,342.6 183.4,343.4 179.8,343.8 176.3,343.8 171.9,343.3 169.3,342.6 165.4,341 161.9,339.1 158.4,336.4 
		155.3,333.7 151.4,329.7 149.1,327 146.3,323.5 142.8,318.9 139,313 134.7,306 131.5,300.5 116.4,268.6 227.8,268.6 	"/>
</g>
<polygon fill="#F6D5AD" points="351.2,123.5 370.2,85.7 457.2,129.2 470.5,215.5 437,317 348.9,317 348.9,356.2 288.5,356.2 
	288.5,367.2 223,367.2 "/>
<g id="oceania">
	<polyline fill="#FC9627" stroke="#FCFCFC" stroke-width="0.5" stroke-miterlimit="10" points="443.5,282.5 443.5,261.8 
		465.1,217.5 511.7,242.7 496.5,273.9 500.1,275.7 502.7,277.4 505.1,279.4 506.6,281.3 507.4,282.9 507.8,284.8 507.4,287 
		506,288.9 503.5,291.1 500.8,292.2 496.9,293 492.9,293 489.9,292.6 486.4,291.4 483.6,289.9 480.9,287.9 479.4,286.4 477,283.6 
		476.3,282.5 443.5,282.5 	"/>
</g>
<g id="blood">
	<polygon fill="#FC9627" stroke="#FCFCFC" stroke-width="0.5" stroke-miterlimit="10" points="440.5,265.7 372.7,265.7 373.1,260.7 
		374.3,254.8 376.2,250.2 378.2,246.6 379.4,245.1 349.4,229.1 346.3,235.3 343.5,242.7 342,247.8 340.8,253.3 340.4,258.3 
		340.4,265.7 328.7,265.3 338.1,223.3 322.5,214.7 329.1,201.5 381.3,228.3 402.4,185.1 462.1,217.5 440.5,261.8 	"/>
</g>
<rect x="375.2" y="255.2" fill="none" width="54.6" height="9"/>
<text transform="matrix(1 0 0 1 375.1898 262)" font-family="'Monitorica-Bold'" font-size="9">Blood Earth Fire</text>
</svg>
