<?xml version="1.0" encoding="utf-8"?>
<!-- Generator: Adobe Illustrator 18.1.1, SVG Export Plug-In . SVG Version: 6.00 Build 0)  -->
<svg version="1.1" id="tepap_x5F_level4" xmlns="http://www.w3.org/2000/svg" xmlns:xlink="http://www.w3.org/1999/xlink" x="0px"
	 y="0px" viewBox="0 0 640 480" enable-background="new 0 0 640 480" xml:space="preserve">
<g id="hotspot">
	<circle fill="#B1ED6B" cx="311" cy="260.6" r="6.8"/>
	<circle fill="#33BF11" stroke="#50DD37" stroke-width="12" stroke-miterlimit="10" cx="311" cy="260.5" r="3.8"/>
	<g id="Layer_23">
	</g>
</g>
<g id="hotspot3">
	<circle fill="#B1ED6B" cx="421.4" cy="386" r="6.8"/>
	<circle fill="#33BF11" stroke="#50DD37" stroke-width="12" stroke-miterlimit="10" cx="421.4" cy="385.9" r="3.8"/>
	<g id="Layer_23_copy_2">
	</g>
</g>
<g>
	<path fill="#9F9F96" stroke="#F6D5AD" stroke-width="9" stroke-miterlimit="10" d="M405.4,3.8l16.5,8.2l-5.1,10.2l49.8,25.4
		l-8.7,16.7l22.4,145.9l48.3,25.9l-17.5,34.7c0,0,31.2,22.1-6.9,28v141.4l-296.1,0.3l-17.3,34l-16.5-8.7l47-92.8l-22.4-24.4
		c0,0-40.2,42.7-95-89.9l151-0.2l4.9-16.5l-4.8-1.2l1-14.5l4-10.4l5.6,0.8l2.8-34l35.8,20.1L405.4,3.8z"/>
	<path fill="none" stroke="#FCFCFA" stroke-width="8" stroke-miterlimit="10" d="M405.4,3.4l16.5,8.2l-5.1,10.2L466.6,47l-8.7,16.7
		l22.4,146l48.3,25.9l-17.5,34.8c0,0,31.2,22.1-6.9,28v141.4l-296.1,0.3l-17.3,34l-16.5-8.7l47-92.8l-22.4-24.4
		c0,0-40.2,42.7-95-89.9l151-0.2l4.9-16.5l-4.8-1.2l1-14.5l4-10.4l5.6,0.8l2.8-34l35.8,20.1L405.4,3.4z"/>
</g>
<g id="empty">
	<polyline fill="#FC9627" stroke="#FCFCFC" stroke-width="0.5" stroke-miterlimit="10" points="406.1,23.7 396,43.5 410.8,50.4 
		389.5,92.8 424,109.9 425.6,106.5 428.3,102.2 431.8,98.1 435.4,96.3 437.7,95.8 441.3,95.8 444.9,97 447.6,98.6 450.3,100.8 
		445.7,72 452.5,58.6 408.8,37.1 413.5,27.7 406.1,23.7 	"/>
</g>
<g id="round">
	<polyline fill="#FC9627" stroke="#FCFCFC" stroke-width="0.5" stroke-miterlimit="10" points="479.2,274 480.8,272.8 483.3,271.7 
		487.6,270.7 492,270.7 496.1,271.4 500.7,273 503.5,274.6 506.3,276.6 508.1,278.6 510.1,280.9 511.3,283 511.3,285.6 510.6,287.9 
		509,289.9 506.3,291.5 502.9,292.8 500.2,293.5 497.6,293.8 495.2,293.8 490.3,293.2 486.4,291.7 482.1,289.4 478.1,285.8 
		476.9,283 477.1,279.8 477.8,276.7 479.2,274 	"/>
</g>
<g id="espresso">
	<polyline fill="#FC9627" stroke="#FCFCFC" stroke-width="0.5" stroke-miterlimit="10" points="317.5,248.2 331.3,256.1 327.4,264 
		325.1,270.6 323.9,276.5 323.1,282 322.7,286.7 322.7,292.2 285.4,292.2 305,252.2 313.3,256.1 317.5,248.2 	"/>
</g>
<g id="toilet">
	<polyline fill="#FC9627" stroke="#FCFCFC" stroke-width="0.5" stroke-miterlimit="10" points="390.9,360.3 390.9,382.1 402,382.1 
		402,360.3 390.9,360.3 	"/>
</g>
<polygon fill="#F6D5AD" points="352.3,121.6 371.3,83.8 458.3,127.3 471.6,213.6 438.1,315.1 350,315.1 350,354.3 289.6,354.3 
	289.6,365.3 224.1,365.3 "/>
<g id="golden">
	<polyline fill="#FC9627" stroke="#FCFCFC" stroke-width="0.5" stroke-miterlimit="10" points="405.2,382.1 405.2,360.3 
		432.9,360.3 432.9,382.1 405.2,382.1 	"/>
</g>
<g id="hinatore">
	<polyline fill="#FC9627" stroke="#FCFCFC" stroke-width="0.5" stroke-miterlimit="10" points="494.4,381.9 435.9,382.1 
		435.9,360.3 494.6,360.3 494.4,381.9 	"/>
</g>
<g id="pasifika">
	<polyline fill="#FC9627" stroke="#FCFCFC" stroke-width="0.5" stroke-miterlimit="10" points="495.1,355.1 460.3,355.1 
		460.3,349.2 467.4,333.9 495.1,333.9 495.1,355.1 	"/>
</g>
<g id="hotspot2">
	<circle fill="#B1ED6B" cx="385.8" cy="145.5" r="6.8"/>
	<circle fill="#33BF11" stroke="#50DD37" stroke-width="12" stroke-miterlimit="10" cx="385.9" cy="145.4" r="3.8"/>
	<g id="Layer_23_copy">
	</g>
</g>
<g id="tangata">
	<polyline fill="#FC9627" stroke="#FCFCFC" stroke-width="0.5" stroke-miterlimit="10" points="494.1,331.4 466.4,331.4 
		459.3,346.8 459.3,352.6 396.4,352.6 396.4,323.2 444,323.2 444,287 475.8,287 477,289.8 480.9,293.3 485.2,295.7 489.2,297.3 
		493.9,297.6 494.1,331.4 	"/>
</g>
<g id="tmr">
	<rect x="377.5" y="310" fill="#FC9627" stroke="#FCFCFC" stroke-width="0.5" stroke-miterlimit="10" width="61.7" height="9.8"/>
</g>
<g id="passports">
	<polygon fill="#FC9627" stroke="#FCFCFC" stroke-width="0.5" stroke-miterlimit="10" points="377.5,305.4 439.2,305.4 439.2,279.1 
		379.9,279.1 	"/>
</g>
<g id="treaty">
	<polygon fill="#FC9627" stroke="#FCFCFC" stroke-width="0.5" stroke-miterlimit="10" points="378.5,276.4 469.7,276.4 469.7,273.7 
		470.5,270.1 472,267.4 390.3,225.8 386.4,232 382.8,239.1 380.1,247.8 379.3,254.4 378.5,267.4 	"/>
</g>
<g id="mana2">
	<polyline fill="#FC9627" stroke="#FCFCFC" stroke-width="0.5" stroke-miterlimit="10" points="432.5,179.7 414.7,213.1 
		399.8,206.4 397.4,206 395.1,206 392.7,207.2 391.6,208.8 390.8,210.7 390.8,213.1 391.6,215 391.9,217.4 391.6,221.7 390.8,223.7 
		472.5,265.3 474.1,264.1 476.4,263 480.7,261.8 480.7,218.2 467.4,211.9 464.9,194.9 458.7,195 451.7,193.4 445,190.3 440.1,186.7 
		434.4,182.4 432.5,179.7 	"/>
</g>
<g id="mana">
	<polyline fill="#FC9627" stroke="#FCFCFC" stroke-width="0.5" stroke-miterlimit="10" points="406.8,133.9 409,134.9 411.4,158.5 
		400.4,188.3 397.6,191.5 394.9,193.5 392.5,194.2 385.5,195.4 382.7,197 380.7,198.6 378,200.9 328.9,176.2 342.8,148.3 
		388.2,171.5 406.8,133.9 	"/>
</g>
<g id="tehuka">
	<polyline fill="#FC9627" stroke="#FCFCFC" stroke-width="0.5" stroke-miterlimit="10" points="465.3,191.3 459.1,191.4 
		452.1,189.8 445.4,186.7 439.5,182.4 434.8,178.8 431.2,173.7 426.9,165.9 423,156.4 459,151.4 465.3,191.3 	"/>
</g>
<g id="hinetitama">
	<polygon fill="#FC9627" stroke="#FCFCFC" stroke-width="0.5" stroke-miterlimit="10" points="424.6,112.9 426.2,109.4 428.9,105.1 
		432.4,101.2 436,99.2 438.3,98.8 441.9,98.8 445.4,100 448.2,101.6 450.9,103.8 458.2,150.3 422.2,155.4 419.1,133 	"/>
</g>
<g id="temarae">
	<polyline fill="#FC9627" stroke="#FCFCFC" stroke-width="0.5" stroke-miterlimit="10" points="392.8,44.9 407.6,51.8 386.3,94.2 
		416.2,109.2 387.5,168.1 341.9,144.8 392.8,44.9 	"/>
</g>
<g id="tehuinga">
	<polyline fill="#FC9627" stroke="#FCFCFC" stroke-width="0.5" stroke-miterlimit="10" points="230.8,267.4 204.3,329.7 
		197.6,336.7 193,339.8 189.5,341.4 186.4,342.2 182.8,342.5 179.3,342.5 174.9,342 172.3,341.4 168.4,339.8 164.9,337.9 
		161.4,335.1 158.3,332.4 154.4,328.5 152.1,325.8 149.3,322.3 145.8,317.6 142,311.8 137.7,304.8 134.5,299.3 119.4,267.4 
		230.8,267.4 	"/>
</g>
</svg>
